HIERARCHY
ROOT Hips
{
	OFFSET 0.000000 100.481300 0.000000
	CHANNELS 6 Xposition Yposition Zposition Xrotation Yrotation Zrotation
	JOINT Spine
	{
		OFFSET -0.279200 12.230698 -2.892100
		CHANNELS 3 Xrotation Yrotation Zrotation
		JOINT Spine1
		{
			OFFSET -0.325700 14.269203 -3.374200
			CHANNELS 3 Xrotation Yrotation Zrotation
			JOINT Spine2
			{
				OFFSET -0.372300 16.307602 -0.352600
				CHANNELS 3 Xrotation Yrotation Zrotation
				JOINT Neck
				{
					OFFSET -0.418800 17.814194 8.416900
					CHANNELS 3 Xrotation Yrotation Zrotation
					JOINT Head
					{
						OFFSET 0.000000 7.031097 3.806800
						CHANNELS 3 Xrotation Yrotation Zrotation
						JOINT HeadTop_End
						{
							OFFSET 0.000000 24.646606 12.978600
							CHANNELS 3 Xrotation Yrotation Zrotation
							End Site
							{
								OFFSET 0.000000 27.854965 0.000000
							}
						}
					}
				}
				JOINT LeftShoulder
				{
					OFFSET 16.952999 14.495407 -7.737500
					CHANNELS 3 Xrotation Yrotation Zrotation
					JOINT LeftArm
					{
						OFFSET 9.308998 -2.777710 0.208600
						CHANNELS 3 Xrotation Yrotation Zrotation
						JOINT LeftForeArm
						{
							OFFSET 29.972298 0.000000 0.000000
							CHANNELS 3 Xrotation Yrotation Zrotation
							JOINT LeftHand
							{
								OFFSET 26.026505 0.000000 0.000000
								CHANNELS 3 Xrotation Yrotation Zrotation
								JOINT LeftHandThumb1
								{
									OFFSET 12.240501 -7.147949 9.207150
									CHANNELS 3 Xrotation Yrotation Zrotation
									JOINT LeftHandThumb2
									{
										OFFSET 4.138618 -2.389435 2.389433
										CHANNELS 3 Xrotation Yrotation Zrotation
										JOINT LeftHandThumb3
										{
											OFFSET 2.726913 -1.574387 1.574386
											CHANNELS 3 Xrotation Yrotation Zrotation
											JOINT LeftHandThumb4
											{
												OFFSET 3.941010 -2.275345 2.275342
												CHANNELS 3 Xrotation Yrotation Zrotation
												End Site
												{
													OFFSET -0.005798 5.087799 0.009903
												}
											}
										}
									}
								}
								JOINT LeftHandIndex1
								{
									OFFSET 24.424698 -1.985611 5.953459
									CHANNELS 3 Xrotation Yrotation Zrotation
									JOINT LeftHandIndex2
									{
										OFFSET 6.426697 0.000000 0.000000
										CHANNELS 3 Xrotation Yrotation Zrotation
										JOINT LeftHandIndex3
										{
											OFFSET 5.337898 0.000000 0.000000
											CHANNELS 3 Xrotation Yrotation Zrotation
											JOINT LeftHandIndex4
											{
												OFFSET 4.409401 0.000000 0.000000
												CHANNELS 3 Xrotation Yrotation Zrotation
												End Site
												{
													OFFSET 0.000000 4.409363 0.014373
												}
											}
										}
									}
								}
								JOINT LeftHandMiddle1
								{
									OFFSET 23.810104 0.000000 0.000000
									CHANNELS 3 Xrotation Yrotation Zrotation
									JOINT LeftHandMiddle2
									{
										OFFSET 7.176498 0.000000 0.000000
										CHANNELS 3 Xrotation Yrotation Zrotation
										JOINT LeftHandMiddle3
										{
											OFFSET 6.774902 0.000000 0.000000
											CHANNELS 3 Xrotation Yrotation Zrotation
											JOINT LeftHandMiddle4
											{
												OFFSET 5.403328 0.000000 0.000000
												CHANNELS 3 Xrotation Yrotation Zrotation
												End Site
												{
													OFFSET -0.027702 5.403244 0.017414
												}
											}
										}
									}
								}
								JOINT LeftHandRing1
								{
									OFFSET 22.908401 -0.839279 -6.020567
									CHANNELS 3 Xrotation Yrotation Zrotation
									JOINT LeftHandRing2
									{
										OFFSET 6.337502 0.000000 0.000000
										CHANNELS 3 Xrotation Yrotation Zrotation
										JOINT LeftHandRing3
										{
											OFFSET 5.779297 0.000000 0.000000
											CHANNELS 3 Xrotation Yrotation Zrotation
											JOINT LeftHandRing4
											{
												OFFSET 4.965698 0.000000 0.000000
												CHANNELS 3 Xrotation Yrotation Zrotation
												End Site
												{
													OFFSET 0.000000 4.965668 0.016186
												}
											}
										}
									}
								}
								JOINT LeftHandPinky1
								{
									OFFSET 20.037003 -1.530319 -10.950146
									CHANNELS 3 Xrotation Yrotation Zrotation
									JOINT LeftHandPinky2
									{
										OFFSET 5.254700 0.000000 0.000000
										CHANNELS 3 Xrotation Yrotation Zrotation
										JOINT LeftHandPinky3
										{
											OFFSET 4.810204 0.000000 0.000000
											CHANNELS 3 Xrotation Yrotation Zrotation
											JOINT LeftHandPinky4
											{
												OFFSET 3.647202 0.000000 0.000000
												CHANNELS 3 Xrotation Yrotation Zrotation
												End Site
												{
													OFFSET 0.000000 3.647186 0.011889
												}
											}
										}
									}
								}
							}
						}
					}
				}
				JOINT RightShoulder
				{
					OFFSET -15.141001 14.495407 -7.737500
					CHANNELS 3 Xrotation Yrotation Zrotation
					JOINT RightArm
					{
						OFFSET -9.308998 -2.777710 0.208500
						CHANNELS 3 Xrotation Yrotation Zrotation
						JOINT RightForeArm
						{
							OFFSET -29.972300 0.000000 0.000000
							CHANNELS 3 Xrotation Yrotation Zrotation
							JOINT RightHand
							{
								OFFSET -26.026505 0.000000 0.000000
								CHANNELS 3 Xrotation Yrotation Zrotation
								JOINT RightHandThumb1
								{
									OFFSET -12.240601 -7.148026 9.207092
									CHANNELS 3 Xrotation Yrotation Zrotation
									JOINT RightHandThumb2
									{
										OFFSET -4.138618 -2.389435 2.389433
										CHANNELS 3 Xrotation Yrotation Zrotation
										JOINT RightHandThumb3
										{
											OFFSET -2.726974 -1.574417 1.574421
											CHANNELS 3 Xrotation Yrotation Zrotation
											JOINT RightHandThumb4
											{
												OFFSET -3.941010 -2.275345 2.275343
												CHANNELS 3 Xrotation Yrotation Zrotation
												End Site
												{
													OFFSET 0.005814 5.087799 0.009927
												}
											}
										}
									}
								}
								JOINT RightHandIndex1
								{
									OFFSET -24.424698 -1.985657 5.953444
									CHANNELS 3 Xrotation Yrotation Zrotation
									JOINT RightHandIndex2
									{
										OFFSET -6.426697 0.000000 0.000000
										CHANNELS 3 Xrotation Yrotation Zrotation
										JOINT RightHandIndex3
										{
											OFFSET -5.337898 0.000000 0.000000
											CHANNELS 3 Xrotation Yrotation Zrotation
											JOINT RightHandIndex4
											{
												OFFSET -4.409401 0.000000 0.000000
												CHANNELS 3 Xrotation Yrotation Zrotation
												End Site
												{
													OFFSET 0.000000 4.409363 0.014408
												}
											}
										}
									}
								}
								JOINT RightHandMiddle1
								{
									OFFSET -23.810097 0.000000 0.000000
									CHANNELS 3 Xrotation Yrotation Zrotation
									JOINT RightHandMiddle2
									{
										OFFSET -7.176498 0.000000 0.000000
										CHANNELS 3 Xrotation Yrotation Zrotation
										JOINT RightHandMiddle3
										{
											OFFSET -6.774902 0.000000 0.000000
											CHANNELS 3 Xrotation Yrotation Zrotation
											JOINT RightHandMiddle4
											{
												OFFSET -5.403328 0.000000 0.000000
												CHANNELS 3 Xrotation Yrotation Zrotation
												End Site
												{
													OFFSET 0.027702 5.403244 0.017457
												}
											}
										}
									}
								}
								JOINT RightHandRing1
								{
									OFFSET -22.908302 -0.839325 -6.020576
									CHANNELS 3 Xrotation Yrotation Zrotation
									JOINT RightHandRing2
									{
										OFFSET -6.337502 0.000000 0.000000
										CHANNELS 3 Xrotation Yrotation Zrotation
										JOINT RightHandRing3
										{
											OFFSET -5.779297 0.000000 0.000000
											CHANNELS 3 Xrotation Yrotation Zrotation
											JOINT RightHandRing4
											{
												OFFSET -4.965698 0.000000 0.000000
												CHANNELS 3 Xrotation Yrotation Zrotation
												End Site
												{
													OFFSET 0.000000 4.965668 0.016226
												}
											}
										}
									}
								}
								JOINT RightHandPinky1
								{
									OFFSET -20.037003 -1.530334 -10.950259
									CHANNELS 3 Xrotation Yrotation Zrotation
									JOINT RightHandPinky2
									{
										OFFSET -5.254700 0.000000 0.000000
										CHANNELS 3 Xrotation Yrotation Zrotation
										JOINT RightHandPinky3
										{
											OFFSET -4.810204 0.000000 0.000000
											CHANNELS 3 Xrotation Yrotation Zrotation
											JOINT RightHandPinky4
											{
												OFFSET -3.647202 0.000000 0.000000
												CHANNELS 3 Xrotation Yrotation Zrotation
												End Site
												{
													OFFSET 0.000000 3.647186 0.011917
												}
											}
										}
									}
								}
							}
						}
					}
				}
			}
		}
	}
	JOINT LeftUpLeg
	{
		OFFSET 15.427100 -6.655098 0.678600
		CHANNELS 3 Xrotation Yrotation Zrotation
		JOINT LeftLeg
		{
			OFFSET 4.081073 -39.591068 13.024000
			CHANNELS 3 Xrotation Yrotation Zrotation
			JOINT LeftFoot
			{
				OFFSET -4.081074 -37.707932 -15.979700
				CHANNELS 3 Xrotation Yrotation Zrotation
				JOINT LeftToeBase
				{
					OFFSET 5.346399 -15.068900 20.645000
					CHANNELS 3 Xrotation Yrotation Zrotation
					JOINT LeftToe_End
					{
						OFFSET 2.754700 0.931300 11.300900
						CHANNELS 3 Xrotation Yrotation Zrotation
						End Site
						{
							OFFSET 0.000000 11.669021 0.000000
						}
					}
				}
			}
		}
	}
	JOINT RightUpLeg
	{
		OFFSET -15.569500 -6.655098 0.678600
		CHANNELS 3 Xrotation Yrotation Zrotation
		JOINT RightLeg
		{
			OFFSET -4.081825 -39.591045 13.023800
			CHANNELS 3 Xrotation Yrotation Zrotation
			JOINT RightFoot
			{
				OFFSET 4.081824 -37.707954 -15.979600
				CHANNELS 3 Xrotation Yrotation Zrotation
				JOINT RightToeBase
				{
					OFFSET -5.346400 -15.068900 20.645000
					CHANNELS 3 Xrotation Yrotation Zrotation
					JOINT RightToe_End
					{
						OFFSET -2.754700 0.931300 11.300900
						CHANNELS 3 Xrotation Yrotation Zrotation
						End Site
						{
							OFFSET 0.000000 11.669021 0.000000
						}
					}
				}
			}
		}
	}
}
MOTION
Frames: 4
Frame Time: 0.033333
2.714692 56.735115 6.635411 6.966971 -3.531375 -3.637874 10.312309 -0.547138 0.971083 20.606448 -2.862791 0.476266 20.606418 -2.862792 0.476265 -8.991208 8.741079 -1.909508 -40.003151 2.273852 1.088921 -0.000000 -0.000000 -0.000000 7.617291 -8.978429 -9.287689 -24.521832 -24.926581 -49.019387 30.113102 -87.045953 30.079754 83.140307 -8.647230 -40.014670 3.712543 14.060641 -6.685142 3.280336 9.370884 1.667149 0.000004 0.000001 -0.000008 0.000003 -0.000003 0.000002 -10.972717 0.633166 -19.075161 0.740155 1.851747 -22.932155 -0.000003 0.000000 0.000000 0.000002 0.000001 -0.000001 -4.660838 1.030328 -33.775753 -0.554553 -1.488205 -35.120372 -0.000004 -0.000002 0.000001 0.000002 0.000003 -0.000001 -0.403277 2.683458 -40.510036 -1.287295 -2.395442 -40.426288 -0.000002 0.000001 -0.000001 -0.000001 0.000001 0.000001 2.631910 -1.689000 -51.089808 -3.611567 -7.747903 -48.997735 -0.000001 0.000000 -0.000001 -0.000002 0.000002 -0.000001 0.000002 0.000003 0.000004 -23.781785 25.489954 60.456197 5.307063 74.711048 -5.120016 58.059948 -1.101526 -19.649764 -29.052712 2.441833 1.964075 6.157439 -21.976147 -5.408965 0.000002 -0.000004 0.000003 0.000000 -0.000000 0.000000 0.647383 -0.932780 32.315541 0.124719 -1.116953 17.135194 0.000000 0.000000 -0.000000 -0.000000 -0.000000 -0.000000 -0.470512 -1.395873 29.360736 -0.170081 0.859062 17.108707 -0.000004 -0.000002 -0.000000 -0.000000 -0.000000 0.000001 -6.669522 -14.321344 32.031009 -0.189321 0.083422 18.859231 0.000000 -0.000000 -0.000000 0.000000 0.000000 -0.000000 -8.412004 -18.422390 42.399554 -0.402080 2.038876 20.632516 -0.000001 -0.000003 0.000001 0.000000 -0.000000 -0.000000 -80.496996 -19.163253 24.750172 89.399827 -5.855157 -4.116542 10.778263 5.322982 -17.925265 -28.772589 -0.301484 1.158981 0.000001 -0.000001 -0.000000 -85.226308 1.183994 -15.507509 62.585822 5.907646 3.947393 16.550336 -1.515107 6.084593 0.000003 -0.000004 0.000001 -0.000000 -0.000000 -0.000000 
2.716324 56.730919 6.641701 6.960607 -3.550431 -3.646802 10.255976 -0.533013 0.972573 20.493892 -2.832572 0.473589 20.493884 -2.832574 0.473589 -8.901484 8.758790 -1.956059 -39.866844 2.388229 1.083127 0.000001 -0.000000 0.000000 7.529037 -9.004473 -9.162320 -24.605386 -25.196457 -49.334029 24.947452 -86.684403 24.969285 83.116101 -8.641871 -40.042168 3.729582 14.097755 -6.686657 3.290750 9.384450 1.665959 0.000001 -0.000001 -0.000008 -0.000001 -0.000001 -0.000000 -10.977077 0.641645 -19.121185 0.740151 1.851772 -22.932340 -0.000003 -0.000000 -0.000000 -0.000001 0.000000 -0.000001 -4.668717 1.022670 -33.797904 -0.554471 -1.488095 -35.117687 -0.000002 -0.000004 -0.000003 -0.000002 0.000000 0.000001 -0.404380 2.682906 -40.527067 -1.287544 -2.395695 -40.429894 0.000000 0.000003 -0.000000 0.000001 0.000001 -0.000002 2.622815 -1.696183 -51.126800 -3.613419 -7.749306 -49.010135 -0.000001 0.000001 -0.000002 -0.000000 -0.000000 -0.000000 -0.010664 -0.055429 0.136968 -23.746536 25.440184 60.263606 5.641782 74.910885 -5.416851 57.838445 -0.985222 -19.595130 -29.052712 2.441837 1.964071 6.157449 -21.976151 -5.408972 0.000003 -0.000007 0.000004 0.000002 0.000000 0.000002 0.647380 -0.932764 32.315551 0.124733 -1.116925 17.135201 0.000001 0.000000 -0.000001 0.000000 0.000000 -0.000001 -0.470523 -1.395860 29.360733 -0.170088 0.859064 17.108709 -0.000004 -0.000002 0.000002 -0.000000 -0.000000 0.000002 -6.669524 -14.321326 32.031005 -0.189338 0.083408 18.859231 -0.000000 -0.000000 -0.000001 0.000000 -0.000000 0.000001 -8.412008 -18.422391 42.399557 -0.402081 2.038883 20.632504 -0.000001 -0.000004 0.000001 0.000001 0.000000 -0.000000 -80.492352 -19.185055 24.772809 89.413296 -5.856848 -4.115208 10.791995 5.302948 -17.935641 -28.774750 -0.301544 1.158985 0.000001 -0.000001 -0.000000 -85.223221 1.176392 -15.491253 62.589552 5.909822 3.948236 16.544897 -1.513814 6.086902 0.000026 0.000204 -0.000679 -0.000000 0.000000 0.000000 
2.715982 56.729858 6.642145 6.937207 -3.571892 -3.660033 10.203008 -0.521978 0.974997 20.388072 -2.807174 0.473072 20.388081 -2.807174 0.473071 -8.756193 8.784395 -2.026973 -39.630991 2.591673 1.029740 0.000000 0.000000 0.000000 7.439480 -9.065098 -8.998030 -24.712331 -25.398760 -49.691696 20.840594 -86.311181 20.921301 83.086704 -8.636855 -40.069527 3.717396 14.062966 -6.692920 3.255799 9.339163 1.669794 0.000003 0.000001 -0.000008 0.000002 -0.000002 -0.000000 -10.985912 0.578981 -19.040501 0.739893 1.851306 -22.925113 -0.000001 -0.000001 0.000000 -0.000001 0.000000 -0.000000 -4.665108 1.014506 -33.720251 -0.554390 -1.487983 -35.115075 -0.000004 -0.000004 0.000000 0.000002 -0.000001 0.000002 -0.398716 2.687895 -40.492114 -1.286359 -2.394414 -40.412105 -0.000001 0.000001 0.000002 -0.000000 0.000001 0.000002 2.634093 -1.688232 -51.040665 -3.615715 -7.751026 -49.025616 0.000001 0.000001 -0.000001 0.000001 -0.000003 -0.000001 -0.020176 -0.090877 0.221148 -23.750178 25.348674 60.141421 5.994104 75.101768 -5.730343 57.637897 -0.846984 -19.552532 -29.052722 2.441827 1.964067 6.157458 -21.976147 -5.408961 0.000005 -0.000008 0.000003 0.000001 0.000002 0.000000 0.647380 -0.932765 32.315548 0.124719 -1.116930 17.135196 0.000000 -0.000000 0.000001 0.000000 0.000000 -0.000000 -0.470523 -1.395850 29.360733 -0.170090 0.859075 17.108705 -0.000004 -0.000002 -0.000000 0.000000 0.000000 0.000001 -6.669519 -14.321334 32.031012 -0.189340 0.083411 18.859226 0.000000 0.000000 -0.000001 0.000001 0.000000 -0.000001 -8.412003 -18.422403 42.399560 -0.402085 2.038884 20.632506 -0.000001 -0.000003 0.000001 0.000000 0.000000 -0.000000 -80.459697 -19.205985 24.795714 89.422455 -5.855152 -4.114371 10.783023 5.283355 -17.941988 -28.760697 -0.301040 1.158991 0.000001 -0.000001 -0.000000 -85.200408 1.163210 -15.466113 62.584955 5.909086 3.946832 16.545681 -1.518186 6.086291 0.000063 0.000524 -0.001733 0.000000 0.000000 -0.000000 
2.713555 56.729019 6.637366 6.901171 -3.597168 -3.679610 10.153345 -0.512968 0.978078 20.288893 -2.785072 0.474368 20.288908 -2.785072 0.474368 -8.541609 8.831202 -2.128511 -39.220428 2.978183 0.917030 0.000000 -0.000000 0.000000 7.347327 -9.133773 -8.811291 -24.869817 -25.564978 -50.088646 17.445410 -85.917967 17.588383 82.977441 -8.745564 -40.117673 3.697074 14.022225 -6.685562 3.228765 9.304094 1.672731 0.000004 -0.000002 -0.000012 -0.000001 -0.000002 0.000000 -10.987140 0.545458 -18.975360 0.739244 1.850188 -22.907124 -0.000003 0.000000 0.000003 -0.000000 0.000002 0.000000 -4.658142 1.006348 -33.614209 -0.554325 -1.487855 -35.112244 -0.000004 -0.000005 -0.000001 -0.000001 -0.000001 0.000003 -0.386679 2.697748 -40.399100 -1.286309 -2.394360 -40.411463 0.000000 0.000001 -0.000000 -0.000000 0.000003 0.000001 2.648419 -1.677750 -50.948515 -3.615564 -7.750917 -49.024578 0.000001 -0.000000 -0.000001 -0.000001 0.000001 -0.000001 -0.028947 -0.115898 0.278489 -23.786093 25.216708 60.067129 6.367315 75.291709 -6.064072 57.447580 -0.675578 -19.516936 -29.052708 2.441842 1.964070 6.157459 -21.976135 -5.408956 0.000004 -0.000006 0.000003 -0.000002 -0.000001 -0.000002 0.647376 -0.932762 32.315558 0.124712 -1.116936 17.135208 0.000001 -0.000000 -0.000002 0.000001 -0.000000 -0.000002 -0.470518 -1.395857 29.360740 -0.170085 0.859073 17.108721 -0.000004 -0.000001 -0.000001 0.000001 0.000000 0.000000 -6.669520 -14.321299 32.031016 -0.189329 0.083410 18.859218 0.000001 -0.000000 0.000000 0.000000 -0.000000 0.000000 -8.411995 -18.422396 42.399560 -0.402093 2.038901 20.632507 -0.000000 -0.000003 0.000001 -0.000000 0.000001 0.000000 -80.413081 -19.237050 24.830313 89.427783 -5.863559 -4.118019 10.784304 5.281337 -17.955343 -28.753717 -0.300797 1.158990 0.000000 -0.000001 0.000000 -85.167097 1.132562 -15.437320 62.574915 5.905287 3.942687 16.551382 -1.514320 6.078891 0.000120 0.000787 -0.002616 0.000000 -0.000000 0.000000 
